<svg xmlns="http://www.w3.org/2000/svg" width="100" height="23" viewBox="0 0 100 23">
    <g fill="none" fill-rule="evenodd">
        <path fill="#1A1919" d="M7.884 11.365h.272c.089.284.386.427.889.427h7.04c.593 0 .916-.143.968-.427l.29.006-.155 2.393h-.407c.013-.541-.032-.89-.133-1.046-.144-.204-.472-.308-.988-.308h-2.398v8.704c0 .465.122.762.367.89.167.091.51.135 1.025.135v.386h-4.275v-.386c.53 0 .877-.044 1.046-.135.245-.128.366-.425.366-.89V12.41H9.704c-.607 0-1.008.097-1.2.29-.142.142-.277.498-.406 1.064H7.71l.174-2.399"/>
        <path fill="#1A1919" d="M17.875 18.246c.295.038.482.058.56.058.542 0 .995-.153 1.355-.456.361-.302.543-.718.543-1.246 0-1.135-.613-1.703-1.84-1.703-.205 0-.413.027-.618.077v3.27zm2.188 2.414c-.22-.337-.626-.976-1.22-1.919h-.968v2.597c0 .35.09.583.272.698.13.065.384.099.762.099v.384h-3.27v-.384c.348 0 .594-.034.735-.099.194-.102.29-.31.29-.62v-5.782c0-.362-.082-.586-.25-.677-.117-.065-.375-.095-.775-.095v-.407h3.288c.75 0 1.367.16 1.858.482.567.374.85.91.85 1.606 0 .955-.53 1.612-1.586 1.973l.832 1.24c.605.913 1.004 1.475 1.198 1.68.414.465.845.699 1.296.699v.384h-1.918c-.335-.335-.8-.956-1.394-1.859z"/>
        <path fill="#1A1919" d="M26.857 15.77l-1.043 3.21h2.204l-1.16-3.21zm-1.674 5.18a2.262 2.262 0 0 0-.115.679c0 .323.211.491.634.506h.422v.384h-1.412c-.761-.013-1.239-.013-1.431 0v-.366c.372-.04.623-.1.755-.183.127-.086.25-.289.366-.61l1.933-5.354c.168-.465.245-.794.232-.985a7.696 7.696 0 0 1-.017-.349c.307-.14.533-.31.675-.502h.25l2.189 6.03.115.328c.27.774.444 1.213.521 1.315.142.194.439.296.89.31v.366h-3.075v-.384h.253c.414 0 .62-.112.62-.332a.634.634 0 0 0-.038-.174l-.715-2.095h-2.607l-.445 1.416zM33.29 14.455c.22.335.76.972 1.625 1.913l2.997 3.269.948.987v-4.428c0-.542-.097-.9-.29-1.074-.194-.174-.56-.261-1.104-.261v-.406h3v.406c-.438 0-.726.077-.86.232-.136.154-.204.46-.204.91v6.66h-.31l-5.92-6.507v4.14c0 .812.063 1.315.193 1.507.154.234.543.348 1.163.348v.368h-3.132v-.368c.475 0 .785-.063.927-.192.207-.18.31-.588.31-1.219v-4.584c0-.477-.114-.813-.339-1.006-.225-.193-.583-.29-1.072-.29v-.405h2.068M45.097 16.002h-.348c-.129-.838-.607-1.257-1.432-1.257-.413 0-.738.135-.977.406-.238.27-.358.613-.358 1.027 0 .412.167.774.502 1.085.207.192.58.424 1.124.697.63.323 1.07.605 1.314.851.4.4.6.91.6 1.53 0 .722-.285 1.303-.852 1.742-.515.413-1.14.62-1.875.62a4.106 4.106 0 0 1-1.8-.409l-.231-1.748h.348c.103.466.303.852.6 1.161.336.36.722.542 1.161.542.41 0 .766-.141 1.063-.426.295-.285.445-.632.445-1.045a1.47 1.47 0 0 0-.465-1.104c-.18-.17-.528-.389-1.043-.66-.594-.308-1.012-.593-1.257-.85-.4-.414-.6-.943-.6-1.59 0-.735.221-1.301.667-1.702.444-.4 1.033-.601 1.77-.601.27 0 .579.026.928.079l.523.096.193 1.556M49.255 15.77l-1.045 3.21h2.205l-1.16-3.21zm-1.675 5.18a2.245 2.245 0 0 0-.115.679c0 .323.21.491.633.506h.422v.384h-1.412c-.76-.013-1.239-.013-1.432 0v-.366c.374-.04.626-.1.754-.183.129-.086.252-.289.368-.61l1.933-5.354c.169-.465.246-.794.232-.985a8.704 8.704 0 0 1-.017-.349c.308-.14.534-.31.676-.502h.251l2.185 6.03.117.328c.27.774.446 1.213.523 1.315.14.194.438.296.89.31v.366H50.51v-.384h.253c.414 0 .622-.112.622-.332a.662.662 0 0 0-.039-.174l-.716-2.095h-2.607l-.444 1.416zM55.752 21.803c.154.22.513.33 1.075.33v.386a712.76 712.76 0 0 0-1.524-.038c-.5 0-1.008.013-1.523.038v-.406c.555 0 .921-.141 1.103-.424.128-.207.206-.613.232-1.22l.154-4.661c.013-.414-.045-.679-.174-.793-.13-.116-.4-.174-.813-.174v-.386h1.994l3.055 6.343 3.036-6.343h2.031v.386c-.399 0-.657.04-.773.114-.18.116-.265.356-.251.715l.154 5.441c.013.464.096.75.25.859.156.109.484.158.988.145v.404a681.348 681.348 0 0 1-1.962-.038c-.622 0-1.192.013-1.711.038v-.406c.603.054.975-.038 1.119-.27.052-.09.079-.316.079-.677l-.059-5.184-2.611 5.42c-.258.593-.42 1-.483 1.219h-.29l-3.076-6.348-.116 4.72c-.014.438.02.708.096.81M69.93 17.065l-.038 1.355.019.676c.012.453.018.657.018.62h-.348c.027-.498-.035-.806-.183-.931-.148-.124-.474-.186-.976-.186h-1.2v1.92c0 .633.039 1.023.116 1.164.141.232.484.348 1.025.348h.716c.593 0 1.028-.096 1.305-.288.278-.194.519-.573.726-1.14l.348.079-.483 1.837h-3.444a79.323 79.323 0 0 0-2.591 0v-.405c.49 0 .799-.084.928-.251.103-.131.156-.452.156-.969v-5.066c0-.44-.072-.717-.213-.833-.103-.078-.394-.134-.871-.174v-.366h5.687v1.78l-.33.075c-.076-.553-.243-.922-.502-1.109-.257-.186-.677-.28-1.258-.28h-1.314v3.129h1.468c.35 0 .594-.101.735-.308.078-.117.136-.341.175-.677h.328M73.923 18.246c.298.038.485.058.562.058.54 0 .993-.153 1.356-.456.36-.302.541-.718.541-1.246 0-1.135-.614-1.703-1.84-1.703-.205 0-.412.027-.619.077v3.27zm2.19 2.414c-.22-.337-.627-.976-1.22-1.919h-.97v2.597c0 .35.091.583.274.698.13.065.384.099.76.099v.384h-3.268v-.384c.348 0 .593-.034.734-.099.195-.102.292-.31.292-.62v-5.782c0-.362-.085-.586-.252-.677-.118-.065-.375-.095-.774-.095v-.407h3.288c.748 0 1.366.16 1.856.482.57.374.853.91.853 1.606 0 .955-.53 1.612-1.587 1.973l.832 1.24c.605.913 1.005 1.475 1.199 1.68.412.465.843.699 1.295.699v.384h-1.918c-.336-.335-.8-.956-1.395-1.859z"/>
        <path fill="#1A1919" d="M82.597 14.821c-.398 0-.663.033-.792.096-.167.106-.251.33-.251.679v5.724c0 .336.097.555.29.659.128.064.38.096.753.096v.444a65.922 65.922 0 0 0-1.585-.057c-.374 0-.935.02-1.683.057v-.444c.375 0 .626-.032.755-.096.18-.09.27-.31.27-.659v-5.724c0-.348-.084-.573-.252-.679-.103-.063-.36-.096-.773-.096v-.366h3.268v.366M90.258 16.602h-.37c-.204-1.252-1.004-1.877-2.397-1.877-.98 0-1.772.356-2.379 1.063-.554.684-.831 1.53-.831 2.534 0 1.02.303 1.91.909 2.67.658.81 1.484 1.219 2.476 1.219.605 0 1.105-.178 1.498-.533.394-.354.648-.835.765-1.44l.329.096-.272 1.727c-.257.168-.654.31-1.19.427-.534.116-.981.174-1.343.174-1.342 0-2.415-.384-3.221-1.153-.805-.769-1.208-1.82-1.208-3.149 0-1.162.438-2.138 1.315-2.927a4.453 4.453 0 0 1 3.075-1.182c.734 0 1.644.207 2.727.62l.117 1.731M94.184 15.77l-1.045 3.21h2.206l-1.161-3.21zm-1.675 5.18a2.25 2.25 0 0 0-.117.679c0 .323.212.491.636.506h.422v.384h-1.413c-.762-.013-1.239-.013-1.432 0v-.366c.374-.04.625-.1.754-.183.13-.086.252-.289.369-.61l1.933-5.354c.168-.465.244-.794.233-.985a7.442 7.442 0 0 1-.021-.349c.31-.14.535-.31.678-.502h.25l2.187 6.03.115.328c.272.774.445 1.213.523 1.315.142.194.439.296.89.31v.366H95.44v-.384h.252c.414 0 .622-.112.622-.332a.606.606 0 0 0-.04-.174l-.713-2.095h-2.608l-.444 1.416zM98.416 14.875c.183 0 .348-.013.348-.235 0-.176-.163-.21-.313-.21h-.297v.445h.262zm-.262.81h-.218v-1.44h.549c.34 0 .508.125.508.409 0 .258-.162.37-.374.396l.409.635h-.243l-.38-.625h-.251v.625zm.265.319c.564 0 1.01-.44 1.01-1.044 0-.59-.446-1.035-1.01-1.035-.573 0-1.017.445-1.017 1.035 0 .603.444 1.044 1.017 1.044zm-1.27-1.044c0-.716.582-1.243 1.27-1.243.68 0 1.259.527 1.259 1.243 0 .725-.58 1.252-1.259 1.252-.688 0-1.27-.527-1.27-1.252z"/>
        <path fill="#E00" d="M3.227.4L2.223 7.288h-.686l.19 3.405L0 22.533h6.323l-.065-.432H3.227v-.585h2.945l-.066-.435H3.227v-.584h2.815l-.065-.432h-2.75v-.586h2.664l-.066-.432H3.227v-.564h2.512l-.065-.433H3.227v-.585h2.382l-.065-.434H3.227v-.584h2.23l-.065-.433H3.227v-.585h2.078l-.065-.432H3.227v-.585h1.949l-.065-.433H3.227v-.584h1.797l-.066-.434H3.93l.314-5.674h-.758l.033.585h-.292V.4zm0 7.904h.316l.032.586h-.348v-.586zm0 1.019h.372l.032.562h-.404v-.562zm0 .995h.428l.034.607h-.462v-.607zm0 1.04h.485l.033.585h-.518v-.585zm0 1.018h.542l.033.585h-.575v-.585z"/>
        <path fill="#E00" d="M4.373 12.072l-.022.433h.499l-.066-.433h-.411M4.438 11.055l-.021.432h.302l-.064-.432h-.217"/>
    </g>
</svg>
